HIERARCHY
ROOT joint_Root
{
  OFFSET 0 0 0
  CHANNELS 6 Xposition Yposition Zposition Zrotation Xrotation Yrotation
  JOINT Hips
  {
    OFFSET 0 93.9241 -3
    CHANNELS 6 Xposition Yposition Zposition Zrotation Xrotation Yrotation
    JOINT Spine
    {
      OFFSET 15.7357 0 0
      CHANNELS 6 Xposition Yposition Zposition Zrotation Xrotation Yrotation
      JOINT Chest
      {
        OFFSET 8.98455 -0.406207 0
        CHANNELS 6 Xposition Yposition Zposition Zrotation Xrotation Yrotation
        JOINT Neck
        {
          OFFSET 16.3773 0 0
          CHANNELS 6 Xposition Yposition Zposition Zrotation Xrotation Yrotation
          JOINT Head
          {
            OFFSET 6.45672 0 0
            CHANNELS 6 Xposition Yposition Zposition Zrotation Xrotation Yrotation
            End Site
            {
              OFFSET 0 0 0
            }
          }
        }
        JOINT Shoulder_L
        {
          OFFSET 12.9942 -0.242716 4.98039
          CHANNELS 6 Xposition Yposition Zposition Zrotation Xrotation Yrotation
          JOINT UpperArm_L
          {
            OFFSET 5.34809 0 0
            CHANNELS 6 Xposition Yposition Zposition Zrotation Xrotation Yrotation
            JOINT LowerArm_L
            {
              OFFSET 24.3286 1.87007e-05 0
              CHANNELS 6 Xposition Yposition Zposition Zrotation Xrotation Yrotation
              JOINT Hand_L
              {
                OFFSET 22.2916 0 0
                CHANNELS 6 Xposition Yposition Zposition Zrotation Xrotation Yrotation
                End Site
                {
                  OFFSET 0 0 0
                }
              }
            }
          }
        }
        JOINT Shoulder_R
        {
          OFFSET 12.9945 -0.242716 -4.98039
          CHANNELS 6 Xposition Yposition Zposition Zrotation Xrotation Yrotation
          JOINT UpperArm_R
          {
            OFFSET -5.34813 0 0
            CHANNELS 6 Xposition Yposition Zposition Zrotation Xrotation Yrotation
            JOINT LowerArm_R
            {
              OFFSET -24.3289 0.000322201 0
              CHANNELS 6 Xposition Yposition Zposition Zrotation Xrotation Yrotation
              JOINT Hand_R
              {
                OFFSET -22.2915 -0.000108084 0
                CHANNELS 6 Xposition Yposition Zposition Zrotation Xrotation Yrotation
                End Site
                {
                  OFFSET 0 0 0
                }
              }
            }
          }
        }
      }
    }
    JOINT UpperLeg_L
    {
      OFFSET -2.19248 -6.46944 0
      CHANNELS 6 Xposition Yposition Zposition Zrotation Xrotation Yrotation
      JOINT LowerLeg_L
      {
        OFFSET 39.0811 0 -1.23785e-05
        CHANNELS 6 Xposition Yposition Zposition Zrotation Xrotation Yrotation
        JOINT Foot_L
        {
          OFFSET 40.9854 0 -1.26872e-05
          CHANNELS 6 Xposition Yposition Zposition Zrotation Xrotation Yrotation
          JOINT Toes_L
          {
            OFFSET 11.7543 0 0
            CHANNELS 6 Xposition Yposition Zposition Zrotation Xrotation Yrotation
            End Site
            {
              OFFSET 0 0 0
            }
          }
        }
      }
    }
    JOINT UpperLeg_R
    {
      OFFSET -2.19251 6.46944 0
      CHANNELS 6 Xposition Yposition Zposition Zrotation Xrotation Yrotation
      JOINT LowerLeg_R
      {
        OFFSET -39.0811 -0.00228153 -0.0401928
        CHANNELS 6 Xposition Yposition Zposition Zrotation Xrotation Yrotation
        JOINT Foot_R
        {
          OFFSET -40.9854 0 0
          CHANNELS 6 Xposition Yposition Zposition Zrotation Xrotation Yrotation
          JOINT Toes_R
          {
            OFFSET -11.7543 0 0
            CHANNELS 6 Xposition Yposition Zposition Zrotation Xrotation Yrotation
            End Site
            {
              OFFSET 0 0 0
            }
          }
        }
      }
    }
  }
}
MOTION
Frames:	6
Frame Time:	0.0333333
0 0 0 0 0 -0 6.98906 85.3269 -394.737 95.6153 -2.58027 -2.5089 15.7357 5.1072e-06 -5.51765e-07 128.972 88.6791 -130.403 8.98455 -0.406207 -4.3199e-07 -5.68927 1.82722 -2.7747 16.3773 -1.3905e-06 -6.99897e-07 -13.6534 1.50493 -2.85453 6.45672 -1.25837e-06 -1.02172e-07 -2.8825 -1.3483 -10.3637 12.9942 -0.242716 4.98039 -90.7583 5.5803 -97.2498 5.34809 -7.22636e-06 -6.2814e-07 -60.868 29.2432 9.88148 24.3286 1.87007e-05 4.90208e-06 24.1924 4.39423 -80.3218 22.2916 -9.88446e-07 4.63217e-06 16.3143 5.50103 -6.56011 12.9945 -0.242716 -4.98039 89.5188 3.46587 -97.0889 -5.34813 -1.25947e-06 -3.79883e-06 -71.1251 17.6921 25.7639 -24.3289 0.000322201 -8.65921e-06 10.0197 6.12232 -58.8825 -22.2915 -0.000108084 -4.47941e-06 44.1935 5.65823 -26.3687 -2.19248 -6.46944 -1.22533e-07 167.645 -3.9014 -17.3207 39.0811 -6.73843e-06 -1.23785e-05 0.319704 -0.264501 46.5015 40.9854 -6.48686e-06 -1.26872e-05 10.0659 2.61039 -82.7121 11.7543 -2.30145e-07 3.05095e-06 0.0491711 -0.0550423 -17.1154 -2.19251 6.46944 -1.45247e-06 173.349 -3.29108 151.716 -39.0811 -0.00228153 -0.0401928 -0.514325 0.092909 78.7688 -40.9854 7.72618e-06 5.99936e-06 10.0218 -17.1033 -44.9186 -11.7543 -5.6619e-06 -5.58687e-06 0.607557 -0.687392 -21.6803 
0 0 0 0 0 -0 6.3019 86.8074 -389.574 94.0029 -1.07994 -3.31856 15.7357 5.1072e-06 -5.51765e-07 73.0387 89.4925 -73.8513 8.98455 -0.406207 -4.3199e-07 -6.79598 -0.192396 -1.63917 16.3773 -1.3905e-06 -6.99897e-07 -13.5484 1.77916 -2.94457 6.45672 -1.25837e-06 -1.02172e-07 -0.948514 0.58144 -10.2718 12.9942 -0.242716 4.98039 -90.437 4.80557 -99.8016 5.34809 -7.22636e-06 -6.2814e-07 -59.0018 29.0293 0.0304169 24.3286 1.87007e-05 4.90207e-06 20.397 2.46386 -83.4124 22.2916 -9.88446e-07 4.63217e-06 16.7179 5.46611 -5.24141 12.9945 -0.242716 -4.98039 89.6166 2.32584 -95.6273 -5.34813 -1.25947e-06 -3.79883e-06 -72.2912 20.6372 34.1133 -24.3289 0.000322201 -8.65921e-06 11.2144 7.10767 -58.0354 -22.2915 -0.000108084 -4.47941e-06 43.4652 5.65348 -26.8827 -2.19248 -6.46944 -1.22533e-07 171.145 -7.81621 -9.66772 39.0811 -6.73843e-06 -1.23785e-05 0.182845 -0.202668 37.9175 40.9854 -6.48686e-06 -1.26872e-05 11.3437 8.52268 -83.1556 11.7543 -2.30145e-07 3.05095e-06 0.168976 -0.193618 -18.4502 -2.19251 6.46944 -1.45247e-06 176.021 -4.35101 148.644 -39.0811 -0.00228153 -0.0401928 -0.441489 0.133012 72.3838 -40.9854 7.72618e-06 5.99936e-06 9.62223 -19.8482 -50.6058 -11.7543 -5.6619e-06 -5.58687e-06 0.553571 -0.62109 -21.2048 
0 0 0 0 0 -0 5.23561 89.0431 -384.351 91.7964 1.64386 -5.27789 15.7357 5.1072e-06 -5.51765e-07 -14.4142 88.0887 14.58 8.98455 -0.406207 -4.3199e-07 -8.72308 -3.71405 0.0490413 16.3773 -1.3905e-06 -6.99897e-07 -13.7494 2.55519 -3.20731 6.45672 -1.25837e-06 -1.02172e-07 0.696769 3.07804 -10.2666 12.9942 -0.242716 4.98039 -90.2101 3.39167 -101.458 5.34809 -7.22636e-06 -6.2814e-07 -56.8569 27.8462 -8.06471 24.3286 1.87007e-05 4.90207e-06 17.8866 0.701675 -87.8305 22.2916 -9.88446e-07 4.63217e-06 18.1199 5.38918 -2.60012 12.9945 -0.242716 -4.98039 89.9018 0.515624 -94.1942 -5.34813 -1.25947e-06 -3.79883e-06 -73.5809 25.9237 41.1435 -24.3289 0.000322201 -8.65921e-06 13.9145 8.51859 -59.0313 -22.2915 -0.000108084 -4.47941e-06 42.7788 5.65569 -26.6624 -2.19248 -6.46944 -1.22533e-07 175.311 -9.16932 -4.129 39.0811 -6.73843e-06 -1.23785e-05 0.159968 -0.264379 28.9103 40.9854 -6.48686e-06 -1.26872e-05 11.4272 13.6174 -75.5379 11.7543 -2.30145e-07 3.05095e-06 0.534664 -0.701981 -23.3998 -2.19251 6.46944 -1.45247e-06 179.29 -4.29073 147.412 -39.0811 -0.00228153 -0.0401928 -0.308228 0.174313 59.8054 -40.9854 7.72618e-06 5.99936e-06 9.25326 -23.243 -53.2067 -11.7543 -5.6619e-06 -5.58687e-06 0.607403 -0.687204 -21.679 
0 0 0 0 0 -0 4.18615 91.4524 -379.004 90.2281 4.6778 -7.2338 15.7357 5.1072e-06 -5.51764e-07 -21.456 85.9457 22.2881 8.98455 -0.406207 -4.3199e-07 -10.7335 -7.64257 0.953184 16.3773 -1.3905e-06 -6.99897e-07 -13.8283 3.42289 -3.34475 6.45672 -1.25837e-06 -1.02172e-07 2.11665 5.51386 -9.48339 12.9942 -0.242716 4.98039 -90.0349 0.83919 -102.644 5.34809 -7.22636e-06 -6.2814e-07 -55.5603 25.3178 -13.1305 24.3286 1.87007e-05 4.90208e-06 16.8296 -0.7919 -92.6182 22.2916 -9.88446e-07 4.63217e-06 18.5016 5.33726 -0.997317 12.9945 -0.242716 -4.98039 90.3194 -1.67971 -94.227 -5.34813 -1.25947e-06 -3.79883e-06 -76.0151 29.5396 46.6808 -24.3289 0.000322201 -8.65921e-06 13.7907 8.5929 -58.6734 -22.2915 -0.000108084 -4.47941e-06 41.3804 5.66098 -26.0748 -2.19248 -6.46944 -1.22533e-07 178.711 -8.2565 -1.23988 39.0811 -6.73843e-06 -1.23785e-05 0.01329 -0.0120042 21.9593 40.9854 -6.48686e-06 -1.26872e-05 6.49086 17.2867 -59.0158 11.7543 -2.30145e-07 3.05095e-06 3.28132 -0.231023 -38.3006 -2.19251 6.46944 -1.45247e-06 -178.546 -3.42067 149.497 -39.0811 -0.00228153 -0.0401928 -0.147065 0.15854 42.039 -40.9854 7.72618e-06 5.99936e-06 6.90822 -24.7927 -55.0862 -11.7543 -5.6619e-06 -5.58687e-06 0.522575 -0.583529 -20.934 
0 0 0 0 0 -0 3.56198 93.2903 -373.429 90.7125 6.72716 -8.01227 15.7357 5.1072e-06 -5.51764e-07 -21.9156 84.6168 22.4944 8.98455 -0.406207 -4.3199e-07 -11.8445 -10.0254 0.122383 16.3773 -1.3905e-06 -6.99897e-07 -13.6659 3.90932 -3.60167 6.45672 -1.25837e-06 -1.02172e-07 2.21869 6.94922 -8.01786 12.9942 -0.242716 4.98039 -89.9376 -3.00746 -103.802 5.34809 -7.22636e-06 -6.2814e-07 -57.0546 21.7431 -15.1078 24.3286 1.87007e-05 4.90208e-06 16.3291 -1.92131 -96.5293 22.2916 -9.88446e-07 4.63217e-06 19.0792 5.34444 -1.20692 12.9945 -0.242716 -4.98039 90.6912 -3.95404 -95.0718 -5.34813 -1.25947e-06 -3.79883e-06 -78.8331 29.541 50.5233 -24.3289 0.000322201 -8.65921e-06 13.0501 8.50764 -57.454 -22.2915 -0.000108084 -4.47941e-06 40.6818 5.66231 -25.8973 -2.19248 -6.46944 -1.22533e-07 179.028 -6.66948 1.31362 39.0811 -6.73843e-06 -1.23785e-05 -0.00126373 0.0207221 17.6194 40.9854 -6.48686e-06 -1.26872e-05 5.34791 17.4783 -43.2092 11.7543 -2.30145e-07 3.05095e-06 2.32582 -3.09531 -45.3675 -2.19251 6.46944 -1.45247e-06 -178.891 -3.08031 154.53 -39.0811 -0.00228153 -0.0401928 -0.0477743 0.104606 23.7744 -40.9854 7.72618e-06 5.99936e-06 5.81896 -20.3877 -54.8838 -11.7543 -5.6619e-06 -5.58687e-06 0.498149 -0.554192 -20.7217 
0 0 0 0 0 -0 3.17141 94.1509 -367.545 92.1742 7.23374 -7.84594 15.7357 5.1072e-06 -5.51764e-07 -22.3307 84.3631 22.2044 8.98455 -0.406207 -4.3199e-07 -12.1837 -10.3384 -1.36078 16.3773 -1.3905e-06 -6.99897e-07 -13.3246 4.15028 -3.96494 6.45672 -1.25837e-06 -1.02172e-07 1.31175 7.3382 -7.04524 12.9942 -0.242716 4.98039 -89.96 -5.71982 -104.598 5.34809 -7.22636e-06 -6.2814e-07 -58.8198 19.1088 -14.5418 24.3286 1.87007e-05 4.90208e-06 15.6523 -2.81658 -99.9494 22.2916 -9.88446e-07 4.63217e-06 22.4419 5.35737 -1.59597 12.9945 -0.242716 -4.98039 90.993 -5.95919 -95.5217 -5.34813 -1.25947e-06 -3.79883e-06 -81.3144 28.2489 53.0262 -24.3289 0.000322201 -8.65921e-06 11.4218 7.52321 -57.058 -22.2915 -0.000108084 -4.47941e-06 39.9684 5.66444 -25.646 -2.19248 -6.46944 -1.22533e-07 177.965 -5.27385 3.09944 39.0811 -6.73843e-06 -1.23785e-05 -0.0115207 0.0556492 17.5653 40.9854 -6.48686e-06 -1.26872e-05 4.85092 16.2512 -31.7568 11.7543 -2.30145e-07 3.05095e-06 1.86847 -3.69982 -47.0967 -2.19251 6.46944 -1.45247e-06 179.572 -4.02021 159.304 -39.0811 -0.00228153 -0.0401928 -0.0106214 0.0484986 11.4064 -40.9854 7.72618e-06 5.99936e-06 2.64573 -16.7222 -57.4611 -11.7543 -5.6619e-06 -5.58687e-06 0.495874 -0.55147 -20.7019 
